<?xml version="1.0" standalone="no"?>
<!DOCTYPE svg PUBLIC "-//W3C//DTD SVG 20010904//EN" "http://www.w3.org/TR/2001/REC-SVG-20010904/DTD/svg10.dtd">
<svg version="1.0" xmlns="http://www.w3.org/2000/svg" width="256.000000pt" height="256.000000pt"
  viewBox="0 0 256.000000 256.000000" preserveAspectRatio="xMidYMid meet">
  <metadata>
    Created by potrace 1.16, written by Peter Selinger 2001-2019
  </metadata>
  <g transform="translate(0.000000,256.000000) scale(0.100000,-0.100000)" fill="#808080" stroke="none">
    <path d="M942 2038 c-20 -20 -14 -37 48 -148 33 -59 60 -111 60 -116 0 -5 -33
-65 -73 -134 l-72 -125 -177 -5 c-97 -3 -178 -7 -181 -10 -14 -15 -187 -326
-187 -335 0 -17 180 -328 198 -342 11 -9 64 -13 183 -13 l166 0 86 -147 85
-148 199 -3 c173 -2 202 0 213 13 8 9 48 76 89 148 l76 132 180 5 179 5 98
170 c54 94 97 175 96 181 -2 6 -46 85 -98 177 l-95 166 -180 3 -179 3 -74 128
-73 128 60 108 c63 111 71 140 46 161 -28 23 -54 -1 -117 -110 l-63 -110 -155
0 -155 0 -34 63 c-86 158 -116 188 -149 155z m35 -738 c40 -69 73 -129 73
-134 0 -4 -33 -66 -72 -137 l-73 -128 -151 -1 -152 0 -71 125 c-39 69 -71 130
-71 137 0 6 33 69 73 140 l72 128 150 -3 150 -2 72 -125z m1060 0 c40 -69 73
-129 73 -135 0 -5 -33 -66 -73 -135 l-73 -125 -154 0 -155 0 -72 125 c-40 69
-70 132 -67 140 3 8 37 70 77 138 l71 122 150 -2 150 -3 73 -125z m-585 -210
l17 -30 -185 0 -185 0 18 30 17 30 151 0 150 0 17 -30z m91 -157 l19 -33 -276
0 -277 0 12 23 c26 49 18 48 267 45 l236 -3 19 -32z m7 -128 c0 -2 -5 -16 -12
-30 l-11 -25 -242 0 -243 0 -16 25 c-9 13 -16 27 -16 30 0 3 122 5 270 5 149
0 270 -2 270 -5z m-89 -162 c-31 -57 -25 -55 -187 -48 l-150 8 -17 28 -16 29
190 0 c178 0 189 -1 180 -17z" />
  </g>
</svg>